<svg version="1.1" id="Layer_1" xmlns="http://www.w3.org/2000/svg" xmlns:xlink="http://www.w3.org/1999/xlink" x="0px" y="0px"
	 width="100%" viewBox="0 0 1366 768" enable-background="new 0 0 1366 768" xml:space="preserve">
<path fill="#EBEFF0" opacity="1.000000" stroke="none" 
	d="
M1034.000000,769.000000 
	C689.373596,769.000000 345.247162,769.000000 1.060373,769.000000 
	C1.060373,513.070190 1.060373,257.140381 1.060373,1.105279 
	C456.209869,1.105279 911.419739,1.105279 1366.814819,1.105279 
	C1366.814819,256.999878 1366.814819,512.999939 1366.814819,769.000000 
	C1256.140137,769.000000 1145.320068,769.000000 1034.000000,769.000000 
M293.584412,533.088257 
	C297.541138,544.168274 298.711670,555.612671 296.389191,567.074158 
	C291.391388,591.737915 277.098816,608.964355 253.003204,616.722839 
	C228.003693,624.772461 205.514191,619.138367 186.675491,600.927917 
	C168.824829,583.672485 151.506958,565.865295 133.988480,548.267151 
	C129.431732,543.689758 129.416473,541.659424 133.010727,536.079651 
	C146.480804,515.168091 147.461365,493.584167 134.025635,472.670288 
	C120.514137,451.638428 100.474991,442.610504 75.630684,447.142090 
	C52.604187,451.342133 37.272045,465.443176 30.960754,487.857635 
	C24.580971,510.515320 30.645414,530.545410 48.216797,546.279297 
	C65.773941,562.000427 86.115433,564.479736 107.850410,556.240112 
	C115.986954,553.155640 116.491776,552.969788 122.648903,559.094238 
	C141.670410,578.014954 160.063934,597.625183 179.870956,615.684875 
	C212.037704,645.013855 263.313263,641.727783 292.292023,609.524170 
	C321.795074,576.737915 320.213104,528.732605 288.387360,496.847504 
	C214.922440,423.245636 141.426758,349.674316 67.850311,276.183960 
	C27.344652,235.725739 29.920149,166.972153 73.532722,129.622269 
	C114.041595,94.930405 173.132553,97.076340 210.902679,134.645859 
	C225.790192,149.454300 240.603134,164.337662 255.467010,179.169907 
	C261.916199,185.605347 265.005005,185.640488 271.333832,179.334137 
	C286.208282,164.512497 300.856689,149.457489 315.963715,134.877304 
	C341.712036,110.026917 372.392303,100.297348 407.642334,107.157677 
	C470.615906,119.413536 505.754944,189.383286 478.630920,247.499695 
	C470.243927,265.469788 456.585388,279.046204 442.707123,292.504791 
	C441.367218,293.804230 438.789429,294.328705 436.776459,294.351654 
	C423.112610,294.507507 409.445465,294.355774 395.780884,294.475586 
	C391.444489,294.513580 388.701660,292.929291 386.763580,288.905884 
	C380.700165,276.318329 374.297028,263.894836 368.113525,251.364365 
	C366.442291,247.977661 364.845215,244.545807 360.391907,244.622513 
	C356.171661,244.695206 354.702057,248.085251 353.117493,251.267487 
	C341.697937,274.201019 330.342194,297.167603 318.669342,319.971710 
	C317.519379,322.218231 314.380310,324.756317 312.149841,324.770020 
	C309.939087,324.783600 306.909546,322.232269 305.637329,320.006653 
	C301.681366,313.086121 298.663330,305.628448 294.689301,298.719757 
	C293.306519,296.315887 290.186462,293.439209 287.877228,293.454224 
	C285.565369,293.469208 282.499542,296.384216 281.121246,298.801758 
	C277.007507,306.017181 273.702484,313.688019 269.805420,321.034454 
	C266.723145,326.844971 261.075531,326.862122 257.717163,321.282928 
	C257.033234,320.146729 256.508850,318.914215 255.915146,317.723999 
	C244.850739,295.543335 233.777649,273.367035 222.733444,251.176346 
	C221.141266,247.977203 219.585312,244.693695 215.372681,244.631393 
	C211.146912,244.568909 209.522339,247.743927 207.921173,250.993683 
	C201.966141,263.080200 195.658569,275.001587 190.028519,287.235809 
	C187.467102,292.801819 183.911377,294.720123 177.981781,294.537567 
	C166.660309,294.189056 155.318161,294.321930 143.988602,294.504700 
	C138.098053,294.599701 134.898041,297.595245 134.908737,302.260010 
	C134.920227,307.281189 138.210617,310.129150 144.320969,310.150177 
	C159.319656,310.201752 174.319351,310.087280 189.317078,310.218933 
	C193.855530,310.258759 196.834747,308.582367 198.788834,304.427582 
	C202.044739,297.505005 205.444992,290.640625 209.060333,283.899658 
	C212.184799,278.073975 218.248627,278.187958 221.547806,283.942322 
	C222.125900,284.950623 222.574341,286.032715 223.094940,287.074615 
	C234.323044,309.546112 245.458450,332.065125 256.918732,354.417603 
	C258.155029,356.828888 261.010529,359.211731 263.588623,359.947174 
	C267.554047,361.078278 269.225739,357.374756 270.737091,354.362823 
	C274.168640,347.524292 277.592377,340.681335 280.948822,333.805786 
	C282.463013,330.703979 284.232544,327.133636 288.079590,328.160370 
	C290.659149,328.848846 293.337830,331.400116 294.741302,333.829041 
	C298.478821,340.297302 301.543884,347.153595 304.889862,353.848816 
	C306.454285,356.979218 307.756042,360.279846 312.250336,360.205109 
	C316.724884,360.130676 317.896484,356.718811 319.508728,353.649109 
	C319.740662,353.207489 319.947418,352.752686 320.170441,352.306274 
	C331.397064,329.838989 342.532440,307.324860 353.990814,284.976318 
	C355.159332,282.697174 358.248749,280.074402 360.480804,280.043213 
	C362.706299,280.012115 365.763611,282.579651 367.074615,284.817291 
	C370.851105,291.263275 373.983124,298.092041 377.261688,304.822388 
	C378.962280,308.313324 381.500183,310.190002 385.477356,310.182037 
	C404.642487,310.143585 423.809326,310.278473 442.971039,310.019623 
	C445.492767,309.985565 448.536957,308.626343 450.399200,306.879059 
	C457.442963,300.270142 464.333740,293.463165 470.859222,286.343048 
	C496.165558,258.730621 507.872650,226.339905 502.035553,189.043716 
	C494.742828,142.446854 468.169891,110.481743 423.524933,95.728882 
	C379.269379,81.104691 339.399567,91.169067 305.493500,123.249939 
	C292.424805,135.615158 280.003021,148.663940 267.275238,161.390045 
	C266.039764,162.625336 264.724701,163.781021 263.546631,164.880295 
	C250.014923,151.442444 236.815598,138.253311 223.527451,125.154243 
	C186.450394,88.604698 131.378769,78.881561 87.211830,102.006966 
	C49.296783,121.858948 27.795340,153.627121 23.939034,196.356293 
	C20.840929,230.684372 31.089161,261.160675 55.467106,285.713806 
	C129.088562,359.864349 203.135071,433.592834 277.010040,507.491699 
	C284.161469,514.645447 289.812195,522.792358 293.584412,533.088257 
M386.961792,395.559418 
	C375.740509,383.644531 361.034576,384.173615 346.496368,384.498230 
	C345.302032,384.524872 343.185791,387.113892 343.251556,388.424316 
	C343.330505,389.997833 345.153595,391.616608 346.497681,392.933990 
	C347.106049,393.530273 348.381104,393.444977 349.352966,393.671967 
	C360.159180,396.195129 362.398743,398.583923 362.401276,409.693329 
	C362.407928,439.025391 362.238281,468.358551 361.933075,497.689087 
	C361.827637,507.818939 359.060364,510.488190 348.864777,511.314087 
	C345.673737,511.572540 343.164948,512.281738 343.393066,516.106750 
	C343.627502,520.036865 346.133942,520.818909 349.647156,520.688416 
	C358.468872,520.360779 367.299744,520.220764 376.128021,520.156921 
	C379.620728,520.131714 383.115814,520.517151 386.610718,520.698608 
	C389.712128,520.859619 391.309723,519.194397 391.500671,516.270325 
	C391.691071,513.354919 390.434204,511.462311 387.221466,511.395355 
	C386.055664,511.371063 384.888367,511.322205 383.726318,511.228027 
	C376.700989,510.658600 373.563171,507.552490 373.005524,500.556488 
	C372.833466,498.398254 372.732697,496.229431 372.715363,494.064514 
	C372.504395,467.732513 372.310699,441.400391 372.135437,415.068146 
	C372.127899,413.933624 372.343292,412.797607 372.583588,410.351379 
	C373.953491,413.291199 374.748444,414.923065 375.481934,416.582123 
	C390.011047,449.445587 404.533966,482.311768 419.054718,515.178894 
	C420.333038,518.072388 421.260223,521.166382 425.466187,521.047974 
	C429.552002,520.932800 430.006897,517.713440 431.095520,515.028442 
	C444.407745,482.195129 457.690491,449.349915 470.990936,416.511871 
	C471.686523,414.794495 472.471954,413.113556 473.215576,411.415680 
	C473.956848,440.232178 474.075562,468.721497 473.884216,497.208771 
	C473.827148,505.707062 471.546173,511.469299 460.061249,511.389069 
	C457.093048,511.368347 454.795227,512.210693 454.946075,515.923462 
	C455.094421,519.574890 457.021057,520.736572 460.460876,520.719543 
	C476.616241,520.639465 492.772400,520.651062 508.927887,520.720825 
	C512.131226,520.734619 514.030701,519.620239 514.245056,516.244385 
	C514.461975,512.827698 512.724915,511.624725 509.485626,511.322388 
	C498.097717,510.259399 496.237030,508.316040 495.262543,497.021179 
	C495.105347,495.198975 495.121948,493.358582 495.121368,491.526581 
	C495.113068,465.693604 495.105621,439.860596 495.131866,414.027649 
	C495.134399,411.533752 495.213959,409.022125 495.512695,406.549500 
	C496.658813,397.063263 499.379669,394.452026 508.898010,394.065582 
	C512.254150,393.929352 514.408020,393.140717 514.215088,389.272644 
	C514.022278,385.405426 511.681763,384.835052 508.414825,384.917023 
	C498.252594,385.172211 488.082001,385.453247 477.922607,385.273834 
	C474.106689,385.206421 472.413300,386.503174 471.043762,389.951355 
	C462.141083,412.366180 453.025330,434.696411 443.965057,457.048553 
	C439.667389,467.651123 435.338135,478.240875 430.730774,489.554474 
	C429.588074,487.123260 428.796082,485.510773 428.064728,483.871216 
	C416.747406,458.499878 405.493317,433.100098 394.070374,407.776428 
	C392.237915,403.714050 389.658691,399.988586 386.961792,395.559418 
M733.177856,492.439728 
	C733.177856,452.301544 733.182373,412.163391 733.173584,372.025208 
	C733.171997,364.661865 731.934875,363.888763 724.992981,365.819000 
	C717.801025,367.818817 710.506287,369.452942 703.243835,371.193848 
	C700.582886,371.831665 697.842834,372.277863 697.973816,375.949829 
	C698.113342,379.860748 701.085571,379.651703 703.728516,379.851135 
	C711.569397,380.442810 713.691345,382.500977 713.833618,390.360779 
	C713.990356,399.018616 713.896423,407.681030 713.908508,416.341431 
	C713.913147,419.709930 713.909180,423.078430 713.909180,426.951996 
	C701.046021,420.920624 688.552979,419.085449 675.664673,422.569427 
	C646.510986,430.450165 631.137207,464.108307 643.238647,493.329712 
	C655.046326,521.841919 687.666138,532.946533 712.110291,510.891754 
	C712.511292,510.529999 713.163330,510.446503 714.026306,510.102386 
	C714.026306,512.866394 714.208435,515.201965 713.984985,517.498108 
	C713.622192,521.226624 714.952759,522.515930 718.796936,522.166382 
	C728.410828,521.292419 738.055725,520.755981 747.689758,520.108032 
	C750.423035,519.924194 753.468567,519.892334 753.316406,516.106873 
	C753.168274,512.423950 750.051270,513.103821 747.637207,512.932373 
	C736.989502,512.176025 733.205811,508.110168 733.178589,497.412994 
	C733.175171,496.080597 733.178040,494.748230 733.177856,492.439728 
M1311.230713,466.256744 
	C1310.142822,464.815643 1309.055054,463.374573 1307.107422,460.794464 
	C1313.586792,454.730011 1320.167969,448.858154 1326.412476,442.647614 
	C1333.098877,435.997559 1340.208008,430.681183 1350.286865,430.757507 
	C1351.530762,430.766937 1353.872070,428.090179 1353.761475,426.828735 
	C1353.637573,425.416779 1351.327637,423.103699 1349.922119,423.068817 
	C1337.935181,422.771301 1325.937622,422.932281 1313.943481,422.885254 
	C1310.879517,422.873230 1309.332520,424.633545 1309.999390,427.211853 
	C1310.382935,428.694183 1312.562012,429.811371 1314.099731,430.844421 
	C1314.675171,431.231018 1315.769287,430.743011 1316.547974,430.950439 
	C1318.254639,431.405151 1319.910767,432.049438 1321.587524,432.616272 
	C1320.932495,434.200745 1320.658813,436.143890 1319.560547,437.311310 
	C1312.598511,444.711731 1305.760620,452.279388 1298.239502,459.081879 
	C1294.524292,462.442047 1289.437988,464.286285 1284.031982,467.348907 
	C1284.031982,464.195740 1284.031860,462.871857 1284.031860,461.547974 
	C1284.031494,431.385834 1284.042358,401.223724 1284.021851,371.061584 
	C1284.017822,365.071930 1282.473389,364.000214 1276.778442,365.481232 
	C1268.904541,367.528870 1260.935913,369.238464 1253.139282,371.537903 
	C1251.415405,372.046295 1249.392456,374.225250 1248.999756,375.970795 
	C1248.302979,379.067413 1251.090820,379.552368 1253.534302,379.821381 
	C1263.133057,380.878052 1264.514282,382.078674 1264.542358,391.411591 
	C1264.651367,427.738983 1264.660522,464.067047 1264.548462,500.394379 
	C1264.518921,509.991028 1262.970337,511.449127 1253.328613,512.438416 
	C1250.453247,512.733459 1248.483887,513.428284 1248.814941,516.868103 
	C1249.137817,520.221069 1251.240601,520.786377 1254.078613,520.673035 
	C1261.069336,520.393677 1268.064209,520.054932 1275.057495,520.054932 
	C1281.717041,520.054932 1288.377808,520.422791 1295.035522,520.691345 
	C1298.089966,520.814514 1299.815063,519.482849 1299.962524,516.411682 
	C1300.113159,513.270081 1298.085083,512.508850 1295.430786,512.447693 
	C1293.935059,512.413208 1292.433716,512.284607 1290.951294,512.079407 
	C1287.191650,511.559052 1284.484619,509.358429 1284.391846,505.649109 
	C1284.114624,494.571075 1284.292358,483.481598 1284.292358,472.246735 
	C1290.385376,472.306213 1294.225952,475.535950 1297.699219,479.542694 
	C1308.612305,492.131683 1319.525146,504.721619 1330.570435,517.194031 
	C1331.749512,518.525452 1333.755981,519.782104 1335.451660,519.886169 
	C1343.592285,520.386047 1351.761963,520.686829 1359.911987,520.541199 
	C1361.580322,520.511414 1364.068604,518.582458 1364.663574,516.969788 
	C1365.660889,514.266663 1363.626099,512.645691 1360.827271,512.555969 
	C1354.327148,512.347717 1349.484131,508.953827 1345.365967,504.398712 
	C1334.082886,491.918488 1322.908325,479.340179 1311.230713,466.256744 
M870.832275,448.500000 
	C870.830078,463.666656 870.953430,478.834686 870.788269,493.999573 
	C870.640564,507.566681 868.768311,509.678131 855.960327,511.381226 
	C852.877991,511.791046 851.457825,513.129639 851.667053,516.210266 
	C851.870300,519.202576 853.355347,520.727417 856.455322,520.721985 
	C873.111267,520.692810 889.767517,520.761169 906.422913,520.668274 
	C910.317566,520.646545 912.738403,516.021973 910.247803,513.199402 
	C909.159058,511.965485 906.770630,511.538116 904.917358,511.376740 
	C895.846313,510.586853 892.853821,507.760742 892.096558,498.752075 
	C891.943298,496.928558 891.943420,495.088654 891.942871,493.256287 
	C891.933777,461.756287 891.935852,430.256317 891.935425,398.756317 
	C891.935364,397.128357 891.935364,395.500397 891.935364,393.738007 
	C898.094910,393.738007 903.726074,393.513855 909.332092,393.792877 
	C916.892334,394.169159 921.648315,398.516266 923.769775,405.559692 
	C925.157104,410.165710 926.096558,414.924835 926.957642,419.666046 
	C927.794006,424.271606 931.169617,424.975891 934.773987,424.848206 
	C938.662781,424.710449 940.084167,422.210571 939.907104,418.379456 
	C939.499573,409.556885 939.122559,400.725525 939.084351,391.896210 
	C939.063416,387.050873 936.723816,385.376251 932.318176,385.378326 
	C898.318176,385.394257 864.318176,385.353546 830.318298,385.420258 
	C824.691895,385.431305 823.423401,386.863525 823.283691,392.716248 
	C823.084717,401.046722 823.108643,409.383026 822.863159,417.711700 
	C822.754822,421.389648 823.117737,424.473602 827.647522,424.933136 
	C832.214417,425.396423 834.986572,423.042603 835.921143,418.349091 
	C836.861267,413.627838 837.786804,408.865570 839.272095,404.301361 
	C840.833008,399.504425 844.019287,395.403809 849.164551,394.613831 
	C856.123840,393.545319 863.240173,393.499573 870.832214,392.977692 
	C870.832214,411.902557 870.832214,429.701263 870.832275,448.500000 
M1109.047241,425.375000 
	C1093.126709,419.453186 1077.182983,418.577271 1061.474976,425.857330 
	C1052.856812,429.851501 1049.308838,437.172638 1051.097534,446.386383 
	C1052.173584,451.929382 1055.052734,456.330536 1060.868774,457.925201 
	C1066.237671,459.397308 1070.192261,457.863098 1073.540527,453.162384 
	C1072.565186,452.140991 1071.538330,451.086243 1070.533936,450.010498 
	C1065.762817,444.900238 1065.647461,437.530518 1070.479004,432.481476 
	C1076.376221,426.318665 1083.721313,426.245239 1091.373413,427.976624 
	C1098.181396,429.517029 1103.089355,433.579498 1104.044922,440.488647 
	C1105.148804,448.468658 1105.072876,456.611877 1105.526245,465.000397 
	C1100.500488,465.394684 1096.369995,465.629761 1092.259521,466.057892 
	C1079.867676,467.348663 1067.260498,467.726898 1056.062378,474.290741 
	C1045.871582,480.264099 1041.142578,490.452545 1043.323975,501.776917 
	C1045.376221,512.429626 1054.012695,520.563538 1065.333008,522.010925 
	C1081.070190,524.023071 1094.604980,519.858765 1104.994873,506.624542 
	C1105.435791,507.689026 1105.750000,508.401398 1106.028564,509.127441 
	C1110.264771,520.167297 1124.373657,526.032593 1135.058838,520.987061 
	C1136.404053,520.351868 1137.855835,518.418091 1137.889893,517.051819 
	C1137.913818,516.096497 1135.714478,514.871460 1134.312134,514.145874 
	C1132.304199,513.106995 1129.056519,512.992798 1128.218628,511.457581 
	C1126.228027,507.809906 1124.301514,503.587585 1124.191772,499.547455 
	C1123.744141,483.060883 1124.147095,466.553314 1123.921143,450.057831 
	C1123.775391,439.418030 1120.303589,430.416870 1109.047241,425.375000 
M616.599731,440.982208 
	C613.057556,433.914642 608.082825,428.053101 600.695312,425.062256 
	C584.422607,418.474335 568.245850,418.545013 553.657349,429.105042 
	C535.880066,441.973328 530.029602,460.088867 533.004333,481.440247 
	C535.811035,501.584442 549.507446,516.853699 568.682251,521.133362 
	C590.228271,525.942261 609.611877,518.816406 620.522888,502.146454 
	C622.249268,499.508789 623.200623,496.924011 620.264832,494.692139 
	C616.899719,492.133820 615.304993,494.758850 613.633545,497.243591 
	C609.453979,503.456665 604.348999,508.577911 596.864380,510.691467 
	C571.971924,517.720642 548.430359,494.474548 554.830078,468.915710 
	C570.922791,468.915710 587.071350,468.947845 603.219482,468.885284 
	C606.032837,468.874390 608.898804,468.735046 611.646423,468.185211 
	C618.521301,466.809387 621.713562,462.521393 620.583374,455.607788 
	C619.811584,450.886536 618.174744,446.306732 616.599731,440.982208 
M1201.541504,420.938416 
	C1196.159424,421.871216 1190.551636,422.131836 1185.432983,423.849457 
	C1158.683472,432.825409 1145.262207,460.928253 1153.623413,489.963959 
	C1158.686890,507.547455 1169.952759,518.731812 1188.221924,521.818665 
	C1208.157349,525.187134 1223.594238,517.269287 1235.661255,501.718262 
	C1237.406860,499.468811 1237.510498,497.038330 1234.860840,495.924683 
	C1233.433716,495.324890 1231.220581,496.439056 1229.421875,496.979218 
	C1228.908691,497.133362 1228.595947,497.978973 1228.206909,498.518707 
	C1220.944946,508.591827 1211.115356,513.233948 1198.810181,511.523712 
	C1186.185425,509.769043 1179.634888,500.972260 1175.934692,489.759827 
	C1171.235718,475.520782 1172.154175,461.137177 1176.429932,447.010681 
	C1180.474976,433.646210 1188.614868,428.244781 1202.620728,428.959503 
	C1208.561035,429.262634 1213.983154,431.096222 1216.472900,437.035156 
	C1218.868164,442.748932 1217.113159,447.837616 1212.494629,451.836456 
	C1209.836548,454.137878 1210.951782,455.706116 1213.138794,457.357788 
	C1218.234497,461.205933 1225.813599,460.310852 1230.303345,455.283142 
	C1238.037842,446.622009 1235.716187,432.076080 1225.555420,426.393951 
	C1218.424194,422.406128 1210.625244,420.898926 1201.541504,420.938416 
M1028.670532,426.931091 
	C1024.185059,420.852631 1017.887024,419.240784 1011.379272,421.899567 
	C1005.019958,424.497711 999.239563,428.554810 993.315918,432.153992 
	C991.298584,433.379730 989.618408,435.160400 987.144653,437.219940 
	C987.144653,432.773926 987.169983,429.315582 987.138916,425.857697 
	C987.086487,420.009644 985.809937,419.062500 980.281372,420.471832 
	C972.399963,422.480957 964.432068,424.189636 956.651245,426.526367 
	C954.814758,427.077911 953.576782,429.622437 952.063538,431.250153 
	C953.767700,432.442963 955.366638,434.455933 957.193848,434.690399 
	C966.402832,435.872375 967.965088,437.334991 967.984436,446.620483 
	C968.021545,464.442078 968.015076,482.263824 967.988525,500.085480 
	C967.973755,510.020477 966.781860,511.351349 956.715698,512.465454 
	C953.909851,512.776001 951.693176,513.437622 952.106445,516.867493 
	C952.485535,520.013855 954.567078,520.718628 957.460693,520.698242 
	C970.939331,520.603027 984.419495,520.589233 997.897949,520.692078 
	C1001.045837,520.716125 1003.125488,519.991089 1003.257141,516.441345 
	C1003.390442,512.845337 1000.956238,512.645996 998.291382,512.414429 
	C989.375549,511.639709 987.690002,510.023590 987.571838,500.963287 
	C987.376465,485.975647 988.182617,470.938141 987.202515,456.011261 
	C986.614319,447.053436 990.233276,441.943878 997.223694,437.947235 
	C997.655579,437.700287 998.045898,437.381775 998.469482,437.118988 
	C1004.934509,433.108093 1009.618042,432.702393 1012.636414,435.886810 
	C1015.904541,439.334656 1015.523682,443.189117 1011.275696,449.796844 
	C1011.197327,449.918610 1011.248901,450.123871 1011.239868,450.290192 
	C1017.002808,455.231781 1024.694824,454.453522 1028.915039,448.221710 
	C1033.491821,441.463226 1033.207642,434.481049 1028.670532,426.931091 
M806.392151,512.393005 
	C798.641602,511.511780 797.006836,509.824829 796.592834,502.064270 
	C796.450989,499.405518 796.467957,496.736572 796.466797,494.072296 
	C796.456726,471.419739 796.484253,448.767120 796.441528,426.114655 
	C796.430054,420.020782 794.933716,418.996307 789.238525,420.474487 
	C781.366821,422.517517 773.391846,424.196869 765.612549,426.535980 
	C763.785522,427.085388 762.565430,429.653107 761.066101,431.292297 
	C762.784424,432.471008 764.400208,434.459076 766.238342,434.691833 
	C775.389221,435.850555 776.967834,437.345673 776.986206,446.663269 
	C777.021729,464.651978 777.022766,482.640900 776.985413,500.629608 
	C776.966125,509.913727 775.468628,511.540802 766.172913,512.440735 
	C763.301636,512.718689 760.637817,513.082642 761.116577,516.911682 
	C761.555603,520.423035 764.043274,520.693481 767.007507,520.668762 
	C780.153625,520.559326 793.301392,520.572144 806.447815,520.655212 
	C809.350281,520.673584 811.860229,520.614990 812.222168,516.888367 
	C812.592773,513.072693 810.216125,512.442444 806.392151,512.393005 
M788.064392,395.960632 
	C796.281799,393.765839 800.359924,388.869965 799.552063,382.169128 
	C798.263000,371.476349 787.871887,367.162506 778.034241,373.285309 
	C774.020996,375.783112 771.109924,379.052917 771.587585,384.206451 
	C772.102112,389.758240 775.216919,393.431641 780.371216,395.163330 
	C782.505554,395.880402 784.922913,395.755066 788.064392,395.960632 
z"/>
<path fill="#CC2E34" opacity="1.000000" stroke="none" 
	d="
M293.416992,532.732422 
	C289.812195,522.792358 284.161469,514.645447 277.010040,507.491699 
	C203.135071,433.592834 129.088562,359.864349 55.467106,285.713806 
	C31.089161,261.160675 20.840929,230.684372 23.939034,196.356293 
	C27.795340,153.627121 49.296783,121.858948 87.211830,102.006966 
	C131.378769,78.881561 186.450394,88.604698 223.527451,125.154243 
	C236.815598,138.253311 250.014923,151.442444 263.546631,164.880295 
	C264.724701,163.781021 266.039764,162.625336 267.275238,161.390045 
	C280.003021,148.663940 292.424805,135.615158 305.493500,123.249939 
	C339.399567,91.169067 379.269379,81.104691 423.524933,95.728882 
	C468.169891,110.481743 494.742828,142.446854 502.035553,189.043716 
	C507.872650,226.339905 496.165558,258.730621 470.859222,286.343048 
	C464.333740,293.463165 457.442963,300.270142 450.399200,306.879059 
	C448.536957,308.626343 445.492767,309.985565 442.971039,310.019623 
	C423.809326,310.278473 404.642487,310.143585 385.477356,310.182037 
	C381.500183,310.190002 378.962280,308.313324 377.261688,304.822388 
	C373.983124,298.092041 370.851105,291.263275 367.074615,284.817291 
	C365.763611,282.579651 362.706299,280.012115 360.480804,280.043213 
	C358.248749,280.074402 355.159332,282.697174 353.990814,284.976318 
	C342.532440,307.324860 331.397064,329.838989 320.170441,352.306274 
	C319.947418,352.752686 319.740662,353.207489 319.508728,353.649109 
	C317.896484,356.718811 316.724884,360.130676 312.250336,360.205109 
	C307.756042,360.279846 306.454285,356.979218 304.889862,353.848816 
	C301.543884,347.153595 298.478821,340.297302 294.741302,333.829041 
	C293.337830,331.400116 290.659149,328.848846 288.079590,328.160370 
	C284.232544,327.133636 282.463013,330.703979 280.948822,333.805786 
	C277.592377,340.681335 274.168640,347.524292 270.737091,354.362823 
	C269.225739,357.374756 267.554047,361.078278 263.588623,359.947174 
	C261.010529,359.211731 258.155029,356.828888 256.918732,354.417603 
	C245.458450,332.065125 234.323044,309.546112 223.094940,287.074615 
	C222.574341,286.032715 222.125900,284.950623 221.547806,283.942322 
	C218.248627,278.187958 212.184799,278.073975 209.060333,283.899658 
	C205.444992,290.640625 202.044739,297.505005 198.788834,304.427582 
	C196.834747,308.582367 193.855530,310.258759 189.317078,310.218933 
	C174.319351,310.087280 159.319656,310.201752 144.320969,310.150177 
	C138.210617,310.129150 134.920227,307.281189 134.908737,302.260010 
	C134.898041,297.595245 138.098053,294.599701 143.988602,294.504700 
	C155.318161,294.321930 166.660309,294.189056 177.981781,294.537567 
	C183.911377,294.720123 187.467102,292.801819 190.028519,287.235809 
	C195.658569,275.001587 201.966141,263.080200 207.921173,250.993683 
	C209.522339,247.743927 211.146912,244.568909 215.372681,244.631393 
	C219.585312,244.693695 221.141266,247.977203 222.733444,251.176346 
	C233.777649,273.367035 244.850739,295.543335 255.915146,317.723999 
	C256.508850,318.914215 257.033234,320.146729 257.717163,321.282928 
	C261.075531,326.862122 266.723145,326.844971 269.805420,321.034454 
	C273.702484,313.688019 277.007507,306.017181 281.121246,298.801758 
	C282.499542,296.384216 285.565369,293.469208 287.877228,293.454224 
	C290.186462,293.439209 293.306519,296.315887 294.689301,298.719757 
	C298.663330,305.628448 301.681366,313.086121 305.637329,320.006653 
	C306.909546,322.232269 309.939087,324.783600 312.149841,324.770020 
	C314.380310,324.756317 317.519379,322.218231 318.669342,319.971710 
	C330.342194,297.167603 341.697937,274.201019 353.117493,251.267487 
	C354.702057,248.085251 356.171661,244.695206 360.391907,244.622513 
	C364.845215,244.545807 366.442291,247.977661 368.113525,251.364365 
	C374.297028,263.894836 380.700165,276.318329 386.763580,288.905884 
	C388.701660,292.929291 391.444489,294.513580 395.780884,294.475586 
	C409.445465,294.355774 423.112610,294.507507 436.776459,294.351654 
	C438.789429,294.328705 441.367218,293.804230 442.707123,292.504791 
	C456.585388,279.046204 470.243927,265.469788 478.630920,247.499695 
	C505.754944,189.383286 470.615906,119.413536 407.642334,107.157677 
	C372.392303,100.297348 341.712036,110.026917 315.963715,134.877304 
	C300.856689,149.457489 286.208282,164.512497 271.333832,179.334137 
	C265.005005,185.640488 261.916199,185.605347 255.467010,179.169907 
	C240.603134,164.337662 225.790192,149.454300 210.902679,134.645859 
	C173.132553,97.076340 114.041595,94.930405 73.532722,129.622269 
	C29.920149,166.972153 27.344652,235.725739 67.850311,276.183960 
	C141.426758,349.674316 214.922440,423.245636 288.387360,496.847504 
	C320.213104,528.732605 321.795074,576.737915 292.292023,609.524170 
	C263.313263,641.727783 212.037704,645.013855 179.870956,615.684875 
	C160.063934,597.625183 141.670410,578.014954 122.648903,559.094238 
	C116.491776,552.969788 115.986954,553.155640 107.850410,556.240112 
	C86.115433,564.479736 65.773941,562.000427 48.216797,546.279297 
	C30.645414,530.545410 24.580971,510.515320 30.960754,487.857635 
	C37.272045,465.443176 52.604187,451.342133 75.630684,447.142090 
	C100.474991,442.610504 120.514137,451.638428 134.025635,472.670288 
	C147.461365,493.584167 146.480804,515.168091 133.010727,536.079651 
	C129.416473,541.659424 129.431732,543.689758 133.988480,548.267151 
	C151.506958,565.865295 168.824829,583.672485 186.675491,600.927917 
	C205.514191,619.138367 228.003693,624.772461 253.003204,616.722839 
	C277.098816,608.964355 291.391388,591.737915 296.389191,567.074158 
	C298.711670,555.612671 297.541138,544.168274 293.416992,532.732422 
M44.237690,501.691467 
	C44.667564,505.649811 44.659302,509.715668 45.600193,513.548584 
	C50.747486,534.517090 71.585541,548.394226 92.026642,544.696167 
	C115.305901,540.484680 129.751053,521.496826 127.156158,498.519135 
	C124.243095,472.723938 98.363754,455.784149 73.758797,463.799255 
	C55.910805,469.613312 46.375263,482.322632 44.237690,501.691467 
z"/>
<path fill="#575757" opacity="1.000000" stroke="none" 
	d="
M387.193237,395.833374 
	C389.658691,399.988586 392.237915,403.714050 394.070374,407.776428 
	C405.493317,433.100098 416.747406,458.499878 428.064728,483.871216 
	C428.796082,485.510773 429.588074,487.123260 430.730774,489.554474 
	C435.338135,478.240875 439.667389,467.651123 443.965057,457.048553 
	C453.025330,434.696411 462.141083,412.366180 471.043762,389.951355 
	C472.413300,386.503174 474.106689,385.206421 477.922607,385.273834 
	C488.082001,385.453247 498.252594,385.172211 508.414825,384.917023 
	C511.681763,384.835052 514.022278,385.405426 514.215088,389.272644 
	C514.408020,393.140717 512.254150,393.929352 508.898010,394.065582 
	C499.379669,394.452026 496.658813,397.063263 495.512695,406.549500 
	C495.213959,409.022125 495.134399,411.533752 495.131866,414.027649 
	C495.105621,439.860596 495.113068,465.693604 495.121368,491.526581 
	C495.121948,493.358582 495.105347,495.198975 495.262543,497.021179 
	C496.237030,508.316040 498.097717,510.259399 509.485626,511.322388 
	C512.724915,511.624725 514.461975,512.827698 514.245056,516.244385 
	C514.030701,519.620239 512.131226,520.734619 508.927887,520.720825 
	C492.772400,520.651062 476.616241,520.639465 460.460876,520.719543 
	C457.021057,520.736572 455.094421,519.574890 454.946075,515.923462 
	C454.795227,512.210693 457.093048,511.368347 460.061249,511.389069 
	C471.546173,511.469299 473.827148,505.707062 473.884216,497.208771 
	C474.075562,468.721497 473.956848,440.232178 473.215576,411.415680 
	C472.471954,413.113556 471.686523,414.794495 470.990936,416.511871 
	C457.690491,449.349915 444.407745,482.195129 431.095520,515.028442 
	C430.006897,517.713440 429.552002,520.932800 425.466187,521.047974 
	C421.260223,521.166382 420.333038,518.072388 419.054718,515.178894 
	C404.533966,482.311768 390.011047,449.445587 375.481934,416.582123 
	C374.748444,414.923065 373.953491,413.291199 372.583588,410.351379 
	C372.343292,412.797607 372.127899,413.933624 372.135437,415.068146 
	C372.310699,441.400391 372.504395,467.732513 372.715363,494.064514 
	C372.732697,496.229431 372.833466,498.398254 373.005524,500.556488 
	C373.563171,507.552490 376.700989,510.658600 383.726318,511.228027 
	C384.888367,511.322205 386.055664,511.371063 387.221466,511.395355 
	C390.434204,511.462311 391.691071,513.354919 391.500671,516.270325 
	C391.309723,519.194397 389.712128,520.859619 386.610718,520.698608 
	C383.115814,520.517151 379.620728,520.131714 376.128021,520.156921 
	C367.299744,520.220764 358.468872,520.360779 349.647156,520.688416 
	C346.133942,520.818909 343.627502,520.036865 343.393066,516.106750 
	C343.164948,512.281738 345.673737,511.572540 348.864777,511.314087 
	C359.060364,510.488190 361.827637,507.818939 361.933075,497.689087 
	C362.238281,468.358551 362.407928,439.025391 362.401276,409.693329 
	C362.398743,398.583923 360.159180,396.195129 349.352966,393.671967 
	C348.381104,393.444977 347.106049,393.530273 346.497681,392.933990 
	C345.153595,391.616608 343.330505,389.997833 343.251556,388.424316 
	C343.185791,387.113892 345.302032,384.524872 346.496368,384.498230 
	C361.034576,384.173615 375.740509,383.644531 387.193237,395.833374 
z"/>
<path fill="#565656" opacity="1.000000" stroke="none" 
	d="
M733.177917,492.927795 
	C733.178040,494.748230 733.175171,496.080597 733.178589,497.412994 
	C733.205811,508.110168 736.989502,512.176025 747.637207,512.932373 
	C750.051270,513.103821 753.168274,512.423950 753.316406,516.106873 
	C753.468567,519.892334 750.423035,519.924194 747.689758,520.108032 
	C738.055725,520.755981 728.410828,521.292419 718.796936,522.166382 
	C714.952759,522.515930 713.622192,521.226624 713.984985,517.498108 
	C714.208435,515.201965 714.026306,512.866394 714.026306,510.102386 
	C713.163330,510.446503 712.511292,510.529999 712.110291,510.891754 
	C687.666138,532.946533 655.046326,521.841919 643.238647,493.329712 
	C631.137207,464.108307 646.510986,430.450165 675.664673,422.569427 
	C688.552979,419.085449 701.046021,420.920624 713.909180,426.951996 
	C713.909180,423.078430 713.913147,419.709930 713.908508,416.341431 
	C713.896423,407.681030 713.990356,399.018616 713.833618,390.360779 
	C713.691345,382.500977 711.569397,380.442810 703.728516,379.851135 
	C701.085571,379.651703 698.113342,379.860748 697.973816,375.949829 
	C697.842834,372.277863 700.582886,371.831665 703.243835,371.193848 
	C710.506287,369.452942 717.801025,367.818817 724.992981,365.819000 
	C731.934875,363.888763 733.171997,364.661865 733.173584,372.025208 
	C733.182373,412.163391 733.177856,452.301544 733.177917,492.927795 
M686.311523,511.454010 
	C695.856567,513.128479 704.152466,510.466095 710.989807,503.770081 
	C712.539612,502.252350 713.755066,499.601654 713.787170,497.452454 
	C714.021179,481.816956 713.190674,466.131378 714.159790,450.552643 
	C714.837769,439.654327 702.898315,429.370178 694.167236,428.773102 
	C680.666077,427.849884 670.250671,434.673340 665.114075,448.945312 
	C661.035461,460.277710 659.795349,472.050812 662.296692,483.811768 
	C665.075134,496.875549 670.563843,508.204132 686.311523,511.454010 
z"/>
<path fill="#565656" opacity="1.000000" stroke="none" 
	d="
M1311.460693,466.528748 
	C1322.908325,479.340179 1334.082886,491.918488 1345.365967,504.398712 
	C1349.484131,508.953827 1354.327148,512.347717 1360.827271,512.555969 
	C1363.626099,512.645691 1365.660889,514.266663 1364.663574,516.969788 
	C1364.068604,518.582458 1361.580322,520.511414 1359.911987,520.541199 
	C1351.761963,520.686829 1343.592285,520.386047 1335.451660,519.886169 
	C1333.755981,519.782104 1331.749512,518.525452 1330.570435,517.194031 
	C1319.525146,504.721619 1308.612305,492.131683 1297.699219,479.542694 
	C1294.225952,475.535950 1290.385376,472.306213 1284.292358,472.246735 
	C1284.292358,483.481598 1284.114624,494.571075 1284.391846,505.649109 
	C1284.484619,509.358429 1287.191650,511.559052 1290.951294,512.079407 
	C1292.433716,512.284607 1293.935059,512.413208 1295.430786,512.447693 
	C1298.085083,512.508850 1300.113159,513.270081 1299.962524,516.411682 
	C1299.815063,519.482849 1298.089966,520.814514 1295.035522,520.691345 
	C1288.377808,520.422791 1281.717041,520.054932 1275.057495,520.054932 
	C1268.064209,520.054932 1261.069336,520.393677 1254.078613,520.673035 
	C1251.240601,520.786377 1249.137817,520.221069 1248.814941,516.868103 
	C1248.483887,513.428284 1250.453247,512.733459 1253.328613,512.438416 
	C1262.970337,511.449127 1264.518921,509.991028 1264.548462,500.394379 
	C1264.660522,464.067047 1264.651367,427.738983 1264.542358,391.411591 
	C1264.514282,382.078674 1263.133057,380.878052 1253.534302,379.821381 
	C1251.090820,379.552368 1248.302979,379.067413 1248.999756,375.970795 
	C1249.392456,374.225250 1251.415405,372.046295 1253.139282,371.537903 
	C1260.935913,369.238464 1268.904541,367.528870 1276.778442,365.481232 
	C1282.473389,364.000214 1284.017822,365.071930 1284.021851,371.061584 
	C1284.042358,401.223724 1284.031494,431.385834 1284.031860,461.547974 
	C1284.031860,462.871857 1284.031982,464.195740 1284.031982,467.348907 
	C1289.437988,464.286285 1294.524292,462.442047 1298.239502,459.081879 
	C1305.760620,452.279388 1312.598511,444.711731 1319.560547,437.311310 
	C1320.658813,436.143890 1320.932495,434.200745 1321.587524,432.616272 
	C1319.910767,432.049438 1318.254639,431.405151 1316.547974,430.950439 
	C1315.769287,430.743011 1314.675171,431.231018 1314.099731,430.844421 
	C1312.562012,429.811371 1310.382935,428.694183 1309.999390,427.211853 
	C1309.332520,424.633545 1310.879517,422.873230 1313.943481,422.885254 
	C1325.937622,422.932281 1337.935181,422.771301 1349.922119,423.068817 
	C1351.327637,423.103699 1353.637573,425.416779 1353.761475,426.828735 
	C1353.872070,428.090179 1351.530762,430.766937 1350.286865,430.757507 
	C1340.208008,430.681183 1333.098877,435.997559 1326.412476,442.647614 
	C1320.167969,448.858154 1313.586792,454.730011 1307.107422,460.794464 
	C1309.055054,463.374573 1310.142822,464.815643 1311.460693,466.528748 
z"/>
<path fill="#575757" opacity="1.000000" stroke="none" 
	d="
M870.832275,448.000000 
	C870.832214,429.701263 870.832214,411.902557 870.832214,392.977692 
	C863.240173,393.499573 856.123840,393.545319 849.164551,394.613831 
	C844.019287,395.403809 840.833008,399.504425 839.272095,404.301361 
	C837.786804,408.865570 836.861267,413.627838 835.921143,418.349091 
	C834.986572,423.042603 832.214417,425.396423 827.647522,424.933136 
	C823.117737,424.473602 822.754822,421.389648 822.863159,417.711700 
	C823.108643,409.383026 823.084717,401.046722 823.283691,392.716248 
	C823.423401,386.863525 824.691895,385.431305 830.318298,385.420258 
	C864.318176,385.353546 898.318176,385.394257 932.318176,385.378326 
	C936.723816,385.376251 939.063416,387.050873 939.084351,391.896210 
	C939.122559,400.725525 939.499573,409.556885 939.907104,418.379456 
	C940.084167,422.210571 938.662781,424.710449 934.773987,424.848206 
	C931.169617,424.975891 927.794006,424.271606 926.957642,419.666046 
	C926.096558,414.924835 925.157104,410.165710 923.769775,405.559692 
	C921.648315,398.516266 916.892334,394.169159 909.332092,393.792877 
	C903.726074,393.513855 898.094910,393.738007 891.935364,393.738007 
	C891.935364,395.500397 891.935364,397.128357 891.935425,398.756317 
	C891.935852,430.256317 891.933777,461.756287 891.942871,493.256287 
	C891.943420,495.088654 891.943298,496.928558 892.096558,498.752075 
	C892.853821,507.760742 895.846313,510.586853 904.917358,511.376740 
	C906.770630,511.538116 909.159058,511.965485 910.247803,513.199402 
	C912.738403,516.021973 910.317566,520.646545 906.422913,520.668274 
	C889.767517,520.761169 873.111267,520.692810 856.455322,520.721985 
	C853.355347,520.727417 851.870300,519.202576 851.667053,516.210266 
	C851.457825,513.129639 852.877991,511.791046 855.960327,511.381226 
	C868.768311,509.678131 870.640564,507.566681 870.788269,493.999573 
	C870.953430,478.834686 870.830078,463.666656 870.832275,448.000000 
z"/>
<path fill="#575757" opacity="1.000000" stroke="none" 
	d="
M1109.374512,425.558960 
	C1120.303589,430.416870 1123.775391,439.418030 1123.921143,450.057831 
	C1124.147095,466.553314 1123.744141,483.060883 1124.191772,499.547455 
	C1124.301514,503.587585 1126.228027,507.809906 1128.218628,511.457581 
	C1129.056519,512.992798 1132.304199,513.106995 1134.312134,514.145874 
	C1135.714478,514.871460 1137.913818,516.096497 1137.889893,517.051819 
	C1137.855835,518.418091 1136.404053,520.351868 1135.058838,520.987061 
	C1124.373657,526.032593 1110.264771,520.167297 1106.028564,509.127441 
	C1105.750000,508.401398 1105.435791,507.689026 1104.994873,506.624542 
	C1094.604980,519.858765 1081.070190,524.023071 1065.333008,522.010925 
	C1054.012695,520.563538 1045.376221,512.429626 1043.323975,501.776917 
	C1041.142578,490.452545 1045.871582,480.264099 1056.062378,474.290741 
	C1067.260498,467.726898 1079.867676,467.348663 1092.259521,466.057892 
	C1096.369995,465.629761 1100.500488,465.394684 1105.526245,465.000397 
	C1105.072876,456.611877 1105.148804,448.468658 1104.044922,440.488647 
	C1103.089355,433.579498 1098.181396,429.517029 1091.373413,427.976624 
	C1083.721313,426.245239 1076.376221,426.318665 1070.479004,432.481476 
	C1065.647461,437.530518 1065.762817,444.900238 1070.533936,450.010498 
	C1071.538330,451.086243 1072.565186,452.140991 1073.540527,453.162384 
	C1070.192261,457.863098 1066.237671,459.397308 1060.868774,457.925201 
	C1055.052734,456.330536 1052.173584,451.929382 1051.097534,446.386383 
	C1049.308838,437.172638 1052.856812,429.851501 1061.474976,425.857330 
	C1077.182983,418.577271 1093.126709,419.453186 1109.374512,425.558960 
M1092.373047,507.015137 
	C1104.199951,499.295654 1106.920166,487.911926 1104.170898,470.562347 
	C1094.944336,472.763000 1085.537231,474.183655 1076.741943,477.320251 
	C1066.566528,480.949005 1061.662598,492.855957 1065.702637,502.878876 
	C1066.894165,505.834900 1070.125977,508.822021 1073.130127,510.017487 
	C1079.509399,512.556091 1085.846924,510.578613 1092.373047,507.015137 
z"/>
<path fill="#575757" opacity="1.000000" stroke="none" 
	d="
M616.762207,441.322937 
	C618.174744,446.306732 619.811584,450.886536 620.583374,455.607788 
	C621.713562,462.521393 618.521301,466.809387 611.646423,468.185211 
	C608.898804,468.735046 606.032837,468.874390 603.219482,468.885284 
	C587.071350,468.947845 570.922791,468.915710 554.830078,468.915710 
	C548.430359,494.474548 571.971924,517.720642 596.864380,510.691467 
	C604.348999,508.577911 609.453979,503.456665 613.633545,497.243591 
	C615.304993,494.758850 616.899719,492.133820 620.264832,494.692139 
	C623.200623,496.924011 622.249268,499.508789 620.522888,502.146454 
	C609.611877,518.816406 590.228271,525.942261 568.682251,521.133362 
	C549.507446,516.853699 535.811035,501.584442 533.004333,481.440247 
	C530.029602,460.088867 535.880066,441.973328 553.657349,429.105042 
	C568.245850,418.545013 584.422607,418.474335 600.695312,425.062256 
	C608.082825,428.053101 613.057556,433.914642 616.762207,441.322937 
M571.602234,429.841217 
	C560.564697,434.880524 553.431702,447.598999 554.530762,460.818512 
	C558.775208,460.818512 563.066772,460.822845 567.358337,460.817505 
	C574.674255,460.808441 581.997803,460.997711 589.304138,460.726410 
	C597.528687,460.420990 600.581665,456.766266 600.035889,448.601501 
	C599.025940,433.493134 587.928772,425.858704 571.602234,429.841217 
z"/>
<path fill="#575757" opacity="1.000000" stroke="none" 
	d="
M1202.020752,420.938477 
	C1210.625244,420.898926 1218.424194,422.406128 1225.555420,426.393951 
	C1235.716187,432.076080 1238.037842,446.622009 1230.303345,455.283142 
	C1225.813599,460.310852 1218.234497,461.205933 1213.138794,457.357788 
	C1210.951782,455.706116 1209.836548,454.137878 1212.494629,451.836456 
	C1217.113159,447.837616 1218.868164,442.748932 1216.472900,437.035156 
	C1213.983154,431.096222 1208.561035,429.262634 1202.620728,428.959503 
	C1188.614868,428.244781 1180.474976,433.646210 1176.429932,447.010681 
	C1172.154175,461.137177 1171.235718,475.520782 1175.934692,489.759827 
	C1179.634888,500.972260 1186.185425,509.769043 1198.810181,511.523712 
	C1211.115356,513.233948 1220.944946,508.591827 1228.206909,498.518707 
	C1228.595947,497.978973 1228.908691,497.133362 1229.421875,496.979218 
	C1231.220581,496.439056 1233.433716,495.324890 1234.860840,495.924683 
	C1237.510498,497.038330 1237.406860,499.468811 1235.661255,501.718262 
	C1223.594238,517.269287 1208.157349,525.187134 1188.221924,521.818665 
	C1169.952759,518.731812 1158.686890,507.547455 1153.623413,489.963959 
	C1145.262207,460.928253 1158.683472,432.825409 1185.432983,423.849457 
	C1190.551636,422.131836 1196.159424,421.871216 1202.020752,420.938477 
z"/>
<path fill="#565656" opacity="1.000000" stroke="none" 
	d="
M1028.871582,427.246338 
	C1033.207642,434.481049 1033.491821,441.463226 1028.915039,448.221710 
	C1024.694824,454.453522 1017.002808,455.231781 1011.239868,450.290192 
	C1011.248901,450.123871 1011.197327,449.918610 1011.275696,449.796844 
	C1015.523682,443.189117 1015.904541,439.334656 1012.636414,435.886810 
	C1009.618042,432.702393 1004.934509,433.108093 998.469482,437.118988 
	C998.045898,437.381775 997.655579,437.700287 997.223694,437.947235 
	C990.233276,441.943878 986.614319,447.053436 987.202515,456.011261 
	C988.182617,470.938141 987.376465,485.975647 987.571838,500.963287 
	C987.690002,510.023590 989.375549,511.639709 998.291382,512.414429 
	C1000.956238,512.645996 1003.390442,512.845337 1003.257141,516.441345 
	C1003.125488,519.991089 1001.045837,520.716125 997.897949,520.692078 
	C984.419495,520.589233 970.939331,520.603027 957.460693,520.698242 
	C954.567078,520.718628 952.485535,520.013855 952.106445,516.867493 
	C951.693176,513.437622 953.909851,512.776001 956.715698,512.465454 
	C966.781860,511.351349 967.973755,510.020477 967.988525,500.085480 
	C968.015076,482.263824 968.021545,464.442078 967.984436,446.620483 
	C967.965088,437.334991 966.402832,435.872375 957.193848,434.690399 
	C955.366638,434.455933 953.767700,432.442963 952.063538,431.250122 
	C953.576782,429.622437 954.814758,427.077911 956.651245,426.526367 
	C964.432068,424.189636 972.399963,422.480957 980.281372,420.471832 
	C985.809937,419.062500 987.086487,420.009644 987.138916,425.857697 
	C987.169983,429.315582 987.144653,432.773926 987.144653,437.219940 
	C989.618408,435.160400 991.298584,433.379730 993.315918,432.153992 
	C999.239563,428.554810 1005.019958,424.497711 1011.379272,421.899567 
	C1017.887024,419.240784 1024.185059,420.852631 1028.871582,427.246338 
z"/>
<path fill="#555555" opacity="1.000000" stroke="none" 
	d="
M806.813171,512.417297 
	C810.216125,512.442444 812.592773,513.072693 812.222168,516.888367 
	C811.860229,520.614990 809.350281,520.673584 806.447815,520.655212 
	C793.301392,520.572144 780.153625,520.559326 767.007507,520.668762 
	C764.043274,520.693481 761.555603,520.423035 761.116577,516.911682 
	C760.637817,513.082642 763.301636,512.718689 766.172913,512.440735 
	C775.468628,511.540802 776.966125,509.913727 776.985413,500.629608 
	C777.022766,482.640900 777.021729,464.651978 776.986206,446.663269 
	C776.967834,437.345673 775.389221,435.850555 766.238342,434.691833 
	C764.400208,434.459076 762.784424,432.471008 761.066101,431.292297 
	C762.565430,429.653107 763.785522,427.085388 765.612549,426.535980 
	C773.391846,424.196869 781.366821,422.517517 789.238525,420.474487 
	C794.933716,418.996307 796.430054,420.020782 796.441528,426.114655 
	C796.484253,448.767120 796.456726,471.419739 796.466797,494.072296 
	C796.467957,496.736572 796.450989,499.405518 796.592834,502.064270 
	C797.006836,509.824829 798.641602,511.511780 806.813171,512.417297 
z"/>
<path fill="#565656" opacity="1.000000" stroke="none" 
	d="
M787.637939,395.986755 
	C784.922913,395.755066 782.505554,395.880402 780.371216,395.163330 
	C775.216919,393.431641 772.102112,389.758240 771.587585,384.206451 
	C771.109924,379.052917 774.020996,375.783112 778.034241,373.285309 
	C787.871887,367.162506 798.263000,371.476349 799.552063,382.169128 
	C800.359924,388.869965 796.281799,393.765839 787.637939,395.986755 
z"/>
<path fill="#EBEEEF" opacity="1.000000" stroke="none" 
	d="
M44.250546,501.252197 
	C46.375263,482.322632 55.910805,469.613312 73.758797,463.799255 
	C98.363754,455.784149 124.243095,472.723938 127.156158,498.519135 
	C129.751053,521.496826 115.305901,540.484680 92.026642,544.696167 
	C71.585541,548.394226 50.747486,534.517090 45.600193,513.548584 
	C44.659302,509.715668 44.667564,505.649811 44.250546,501.252197 
z"/>
<path fill="#EAEEEF" opacity="1.000000" stroke="none" 
	d="
M685.899170,511.362976 
	C670.563843,508.204132 665.075134,496.875549 662.296692,483.811768 
	C659.795349,472.050812 661.035461,460.277710 665.114075,448.945312 
	C670.250671,434.673340 680.666077,427.849884 694.167236,428.773102 
	C702.898315,429.370178 714.837769,439.654327 714.159790,450.552643 
	C713.190674,466.131378 714.021179,481.816956 713.787170,497.452454 
	C713.755066,499.601654 712.539612,502.252350 710.989807,503.770081 
	C704.152466,510.466095 695.856567,513.128479 685.899170,511.362976 
z"/>
<path fill="#E9EDEE" opacity="1.000000" stroke="none" 
	d="
M1092.056641,507.208008 
	C1085.846924,510.578613 1079.509399,512.556091 1073.130127,510.017487 
	C1070.125977,508.822021 1066.894165,505.834900 1065.702637,502.878876 
	C1061.662598,492.855957 1066.566528,480.949005 1076.741943,477.320251 
	C1085.537231,474.183655 1094.944336,472.763000 1104.170898,470.562347 
	C1106.920166,487.911926 1104.199951,499.295654 1092.056641,507.208008 
z"/>
<path fill="#E8ECED" opacity="1.000000" stroke="none" 
	d="
M571.967529,429.692017 
	C587.928772,425.858704 599.025940,433.493134 600.035889,448.601501 
	C600.581665,456.766266 597.528687,460.420990 589.304138,460.726410 
	C581.997803,460.997711 574.674255,460.808441 567.358337,460.817505 
	C563.066772,460.822845 558.775208,460.818512 554.530762,460.818512 
	C553.431702,447.598999 560.564697,434.880524 571.967529,429.692017 
z"/>
</svg>